inDegrees=yes
name=ik_lifting_orientations
DataType=double
version=3
OpenSimVersion=4.5-2024-01-10-34fd6af
endheader
time	pelvis_tilt	pelvis_list	pelvis_rotation	pelvis_tx	pelvis_ty	pelvis_tz	hip_flexion_r	hip_adduction_r	hip_rotation_r	knee_angle_r	knee_angle_r_beta	ankle_angle_r	subtalar_angle_r	mtp_angle_r	hip_flexion_l	hip_adduction_l	hip_rotation_l	knee_angle_l	knee_angle_l_beta	ankle_angle_l	subtalar_angle_l	mtp_angle_l	lumbar_extension	lumbar_bending	lumbar_rotation	arm_flex_r	arm_add_r	arm_rot_r	elbow_flex_r	pro_sup_r	wrist_flex_r	wrist_dev_r	arm_flex_l	arm_add_l	arm_rot_l	elbow_flex_l	pro_sup_l	wrist_flex_l	wrist_dev_l
0.43	-5.805594770330149	-4.863619962924021	99.07179606300816	0	0.9399999998679526	0	44.54069431855139	-10.40191432732788	0	60.22819312419666	1.051180272544242	-5.103720172611414	0	0	44.54069431855139	-10.40191432732788	0	60.22819312419666	1.051180272544242	-5.103720172611414	0	0	-42.98884496257148	30.07947749137453	20.5510466846797	61.13047707144285	-49.46525518809435	17.89398265352595	0.06930056912037739	1.392388508691227	0	0	0	-11.04366419029158	0	88.58517466426039	1.392388508691227	0	0
0.44	-5.792060269828314	-4.849408541852535	99.06039982924908	0	0.9399999998679526	0	44.54104447958358	-10.40084706325248	0	60.22805643324568	1.05117788683709	-5.103361245453555	0	0	44.54104447958358	-10.40084706325248	0	60.22805643324568	1.05117788683709	-5.103361245453555	0	0	-46.85677632168397	31.86770122654268	23.56035228277087	67.23117120624235	-51.93077839792588	21.53877313809427	0.08786896900279247	1.391649245205228	0	0	0	-11.04521243371071	0	88.58592575213873	1.391649245205228	0	0
0.45	-6.676657601311961	-5.075081227263552	99.71289264329734	0	0.9399999998679526	0	44.54140160762371	-10.39975371767498	0	60.22791764847548	1.051175464585898	-5.102993347987888	0	0	44.54140160762371	-10.39975371767498	0	60.22791764847548	1.051175464585898	-5.102993347987888	0	0	-45.80149055439804	31.64385168241779	22.58445936854275	67.0408708133987	-51.21709356144279	20.90154719164079	0.1269490628218531	1.390896474874524	0	0	0	-11.0467867928387	0	88.5866905629648	1.390896474874524	0	0
0.46	-5.79900377529388	-4.863042814864774	99.0839956617336	0	0.9399999998679526	0	44.54183073766001	-10.39844622644312	0	60.22775051860052	1.051172547619301	-5.10255403917532	0	0	44.54183073766001	-10.39844622644312	0	60.22775051860052	1.051172547619301	-5.10255403917532	0	0	-47.89394997568091	31.81306347802757	24.85299608584146	68.52939536700086	-51.62833257760564	21.52241567085825	0.1291038079521218	1.389990992210097	0	0	0	-11.04868207352342	0	88.5876105286917	1.389990992210097	0	0
0.47	-5.746849028575736	-5.543697245105403	99.0052686407651	0	0.9399999998679526	0	44.54215480741909	-10.39745940750974	0	60.22762445504084	1.051170347395118	-5.10222268617633	0	0	44.54215480741909	-10.39745940750974	0	60.22762445504084	1.051170347395118	-5.10222268617633	0	0	-50.06137630024513	33.05439478544339	26.20619980120891	72.6886633161407	-51.72045895669515	24.63936732508489	0.1705248891861726	1.389307374333616	0	0	0	-11.05011253040672	0	88.58830508094498	1.389307374333616	0	0
0.48	-5.744819168503804	-5.551088423260576	99.00967203800509	0	0.9399999998679526	0	44.54252533923257	-10.39633262329994	0	60.22748033853388	1.051167832087565	-5.101844587169825	0	0	44.54252533923257	-10.39633262329994	0	60.22748033853388	1.051167832087565	-5.101844587169825	0	0	-49.86268670858021	31.79340692377072	26.73188224515927	72.0589331117686	-51.90689037575329	22.82918384376609	0.330118239932093	1.388525663109723	0	0	0	-11.05174831708763	0	88.58909929552934	1.388525663109723	0	0
0.49	-5.739865212021951	-5.553950855925535	99.01611095425858	0	0.9399999998679526	0	44.5429454223334	-10.39505670785159	0	60.22731704527495	1.051164982082551	-5.101416765894408	0	0	44.5429454223334	-10.39505670785159	0	60.22731704527495	1.051164982082551	-5.101416765894408	0	0	-49.8572217564073	31.79506026012985	26.72307792876003	70.82303966427666	-51.74905856708236	21.53691980315675	0.4031998795391462	1.387639441659789	0	0	0	-11.05360262872091	0	88.58999969196553	1.387639441659789	0	0
0.5	-5.548661134947802	-6.438144842358252	98.95721228004612	0	0.9399999998679526	0	44.54336112491782	-10.39379980300083	0	60.22715516488196	1.051162156736698	-5.100995937576596	0	0	44.54336112491782	-10.39379980300083	0	60.22715516488196	1.051162156736698	-5.100995937576596	0	0	-50.34971198024148	33.22523750145557	28.13217042150047	73.14376669511906	-52.87171045187969	24.05239436856	0.402965109871992	1.386761667895031	0	0	0	-11.05544051742047	0	88.59089150555242	1.386761667895031	0	0
0.51	-4.678894085498389	-6.240720875673508	98.34279844260743	0	0.9399999998679526	0	44.54359644488472	-10.39309426816604	0	60.22706299334695	1.051160548039936	-5.100760173205755	0	0	44.54359644488472	-10.39309426816604	0	60.22706299334695	1.051160548039936	-5.100760173205755	0	0	-51.13641487535454	33.21599043534003	29.48086881111726	73.08065900437164	-52.87121985595199	23.98885554608947	0.4117771321062461	1.38626359693037	0	0	0	-11.05648545069321	0	88.59139754300064	1.38626359693037	0	0
0.52	-4.672368377655388	-6.250014776311995	98.34432689185861	0	0.9399999998679526	0	44.54403309525822	-10.39177666073322	0	60.22689307527183	1.051157582410067	-5.100319525525525	0	0	44.54403309525822	-10.39177666073322	0	60.22689307527183	1.051157582410067	-5.100319525525525	0	0	-50.93794025515975	33.08150369939086	29.91851538982291	72.55470932308455	-53.56642180534136	22.93112825728916	0.263278209996416	1.385341563724249	0	0	0	-11.05841588638358	0	88.59233432394467	1.385341563724249	0	0
0.53	-5.553547938999825	-6.445206523774988	98.97428119996323	0	0.9399999998679526	0	44.54436939272536	-10.39076519047557	0	60.22676206478989	1.051155295845802	-5.099981641863169	0	0	44.54436939272536	-10.39076519047557	0	60.22676206478989	1.051155295845802	-5.099981641863169	0	0	-50.12244455049294	31.98810498607203	28.61610484242935	72.03034195822023	-53.81638058405059	21.79917505181612	0.176840246942014	1.384631003317756	0	0	0	-11.0599042378895	0	88.59305624959879	1.384631003317756	0	0
0.54	-5.551252446044672	-6.456646242687812	98.97613398716852	0	0.9399999998679526	0	44.54467813870413	-10.38983675519883	0	60.2266419139763	1.051153198818506	-5.09967162891385	0	0	44.54467813870413	-10.38983675519883	0	60.2266419139763	1.051153198818506	-5.09967162891385	0	0	-50.11196678034224	31.95336481538394	28.60532807238206	72.34033923614264	-53.30379772285739	22.08851268331209	0.1845194533283006	1.383978822126263	0	0	0	-11.06126994653362	0	88.59371886228369	1.383978822126263	0	0
0.55	-4.665857422277524	-6.242331819255544	98.32812566019138	0	0.9399999998679526	0	44.54509150422674	-10.38859605626728	0	60.22648104342471	1.051150391097711	-5.099257697701425	0	0	44.54509150422674	-10.38859605626728	0	60.22648104342471	1.051150391097711	-5.099257697701425	0	0	-52.29970647034107	33.03145271501374	30.90389697706775	73.88667972693968	-54.55634108083671	24.18417843607073	0.2830098203333806	1.38310547766101	0	0	0	-11.06309897062041	0	88.59460617568909	1.38310547766101	0	0
0.5600000000000001	-4.686007266995134	-6.239810499026266	98.36088438940575	0	0.9399999998679526	0	44.54536901903062	-10.38776538181995	0	60.22637296197842	1.051148504720613	-5.098980838695332	0	0	44.54536901903062	-10.38776538181995	0	60.22637296197842	1.051148504720613	-5.098980838695332	0	0	-50.97036384324483	33.12638738118419	29.89929433504116	72.85058060281501	-54.74590505846343	24.43271570271437	0.2804633348396344	1.382518884422547	0	0	0	-11.06432785841836	0	88.59520215133351	1.382518884422547	0	0
0.57	-4.675387129909138	-6.237880311924715	98.34298406112218	0	0.9399999998679526	0	44.54579986641042	-10.38647970343573	0	60.22620499390691	1.051145573124727	-5.098552787516238	0	0	44.54579986641042	-10.38647970343573	0	60.22620499390691	1.051145573124727	-5.098552787516238	0	0	-50.90882419346545	31.97176250698985	29.98000045512737	71.90329257330464	-54.53183914395412	22.64968148310729	0.2911380419187637	1.381607670047023	0	0	0	-11.06623761159266	0	88.5961279403159	1.381607670047023	0	0
0.58	-4.676441312444785	-6.237753661834217	98.34304619932104	0	0.9399999998679526	0	44.54669212422239	-10.38414829123716	0	60.22581322857708	1.051138735529826	-5.09779451526542	0	0	44.54669212422239	-10.38414829123716	0	60.22581322857708	1.051138735529826	-5.09779451526542	0	0	-50.95118197142372	33.09294831085725	29.92125116298158	71.87667920960222	-56.05274614661814	23.94106655771712	0.7218156715111751	1.379639062930009	0	0	0	-11.07051286537169	0	88.59812803019605	1.379639062930009	0	0
0.59	-5.399463821487971	-6.27723324671829	97.38119135446033	0	0.9399999998679526	0	44.54683351632366	-10.38373036437798	0	60.22575789917971	1.051137769849669	-5.097655788596252	0	0	44.54683351632366	-10.38373036437798	0	60.22575789917971	1.051137769849669	-5.097655788596252	0	0	-51.02320716459684	31.96724951891934	29.91691477825013	72.40151176526638	-56.2922931020755	23.72465476113732	0.9937930007268521	1.379339425642867	0	0	0	-11.0711418308396	0	88.59843246005886	1.379339425642867	0	0
0.6	-5.581114317800996	-5.380413891242849	97.42793611698633	0	0.9399999998679526	0	44.54726930558581	-10.38243751225598	0	60.22558809911026	1.051134806279387	-5.097226521957825	0	0	44.54726930558581	-10.38243751225598	0	60.22558809911026	1.051134806279387	-5.097226521957825	0	0	-50.54308865563615	32.00008876548524	28.87744838554717	70.70799042099232	-56.55365027491707	22.84001402436765	1.319754603781735	1.378417288418629	0	0	0	-11.07307490286111	0	88.59936934656352	1.378417288418629	0	0
0.61	-4.919630373066829	-4.65508257061333	98.45116644001502	0	0.9399999998679526	0	44.54896817194779	-10.37863131299625	0	60.22478787249523	1.051120839690193	-5.096036750978728	0	0	44.54896817194779	-10.37863131299625	0	60.22478787249523	1.051120839690193	-5.096036750978728	0	0	-51.13171913072886	32.09212527505905	28.93980348690906	71.07559642218288	-56.79945165129143	23.00659319058238	0.9455113676593881	1.374537467170348	0	0	0	-11.08172063732248	0	88.60331120880126	1.374537467170348	0	0
0.62	-5.80297133115051	-4.865848476145303	99.08211796673579	0	0.9399999998679526	0	44.54948696285624	-10.37710777343032	0	60.22458543072156	1.051117306414699	-5.09553274309259	0	0	44.54948696285624	-10.37710777343032	0	60.22458543072156	1.051117306414699	-5.09553274309259	0	0	-50.33811504000388	32.06868732865162	27.5843774086016	69.37250474733997	-57.13951689502827	21.69420666612908	1.848063229421156	1.373437866034142	0	0	0	-11.08402837512101	0	88.60442839757734	1.373437866034142	0	0
